<svg xmlns="http://www.w3.org/2000/svg">
  <symbol id="academic-cap" fill="none" viewBox="0 0 24 24" stroke="currentColor">
    <path d="M12 14l9-5-9-5-9 5 9 5z" />
    <path d="M12 14l6.16-3.422a12.083 12.083 0 01.665 6.479A11.952 11.952 0 0012 20.055a11.952 11.952 0 00-6.824-2.998 12.078 12.078 0 01.665-6.479L12 14z" />
    <path stroke-linecap="round" stroke-linejoin="round" stroke-width="2" d="M12 14l9-5-9-5-9 5 9 5zm0 0l6.16-3.422a12.083 12.083 0 01.665 6.479A11.952 11.952 0 0012 20.055a11.952 11.952 0 00-6.824-2.998 12.078 12.078 0 01.665-6.479L12 14zm-4 6v-7.5l4-2.222" />
  </symbol>
  <symbol id="cake" fill="none" viewBox="0 0 24 24" stroke="currentColor">
    <path stroke-linecap="round" stroke-linejoin="round" stroke-width="2" d="M21 15.546c-.523 0-1.046.151-1.5.454a2.704 2.704 0 01-3 0 2.704 2.704 0 00-3 0 2.704 2.704 0 01-3 0 2.704 2.704 0 00-3 0 2.704 2.704 0 01-3 0 2.701 2.701 0 00-1.5-.454M9 6v2m3-2v2m3-2v2M9 3h.01M12 3h.01M15 3h.01M21 21v-7a2 2 0 00-2-2H5a2 2 0 00-2 2v7h18zm-3-9v-2a2 2 0 00-2-2H8a2 2 0 00-2 2v2h12z" />
  </symbol>
  <symbol id="camera" viewBox="0 0 20 20" fill="currentColor">
    <path fill-rule="evenodd" d="M4 5a2 2 0 00-2 2v8a2 2 0 002 2h12a2 2 0 002-2V7a2 2 0 00-2-2h-1.586a1 1 0 01-.707-.293l-1.121-1.121A2 2 0 0011.172 3H8.828a2 2 0 00-1.414.586L6.293 4.707A1 1 0 015.586 5H4zm6 9a3 3 0 100-6 3 3 0 000 6z" clip-rule="evenodd" />
  </symbol>
  <symbol id="wifi" fill="none" viewBox="0 0 24 24" stroke="currentColor">
    <path stroke-linecap="round" stroke-linejoin="round" stroke-width="2" d="M9 19v-6a2 2 0 00-2-2H5a2 2 0 00-2 2v6a2 2 0 002 2h2a2 2 0 002-2zm0 0V9a2 2 0 012-2h2a2 2 0 012 2v10m-6 0a2 2 0 002 2h2a2 2 0 002-2m0 0V5a2 2 0 012-2h2a2 2 0 012 2v14a2 2 0 01-2 2h-2a2 2 0 01-2-2z" />
  </symbol>
  <symbol id="mario" viewBox="0 0 24 24" fill="currentColor">
    <path d="M0 23 8 0l5 10 4-9 7 22h-6l-2-10-3 4-4-6-3 12z" />
  </symbol>
</svg>
